<svg viewBox="0 0 200 120" fill="none" xmlns="http://www.w3.org/2000/svg">
  <rect width="200" height="120" rx="5" fill="#0d1117"/>
  <rect width="200" height="22" fill="#161b22"/>
  <rect x="8" y="7" width="8" height="8" rx="1.5" fill="#3d444d"/>
  <rect x="20" y="9" width="55" height="4" rx="2" fill="#3d444d"/>
  <rect x="8" y="31" width="88" height="3" rx="1.5" fill="#3d444d"/>
  <rect x="8" y="40" width="65" height="3" rx="1.5" fill="#3d444d"/>
  <rect x="8" y="49" width="98" height="3" rx="1.5" fill="#3d444d"/>
  <rect x="0" y="59" width="148" height="13" fill="rgba(56,139,253,0.10)"/>
  <rect x="0" y="59" width="2" height="13" fill="#388bfd"/>
  <rect x="8" y="64" width="100" height="3" rx="1.5" fill="#f85149" opacity="0.7"/>
  <rect x="8" y="79" width="78" height="3" rx="1.5" fill="#3d444d"/>
  <rect x="8" y="88" width="96" height="3" rx="1.5" fill="#3d444d"/>
  <rect x="8" y="97" width="58" height="3" rx="1.5" fill="#3d444d"/>
  <rect x="8" y="106" width="82" height="3" rx="1.5" fill="#3d444d"/>
  <!-- Loading ring background -->
  <circle cx="170" cy="65.5" r="20" stroke="#21262d" stroke-width="3.5" fill="none"/>
  <!-- Half arc loading progress -->
  <path d="M170 45.5 A20 20 0 0 1 170 85.5" stroke="#f85149" stroke-width="3.5" fill="none" stroke-linecap="round"/>
  <!-- Bug icon: head -->
  <circle cx="170" cy="58.5" r="4" fill="#1a1a1a"/>
  <!-- Bug icon: body -->
  <ellipse cx="170" cy="68" rx="6.5" ry="5.5" fill="#e53935"/>
  <!-- Bug icon: center line -->
  <line x1="170" y1="62.5" x2="170" y2="73.5" stroke="#1a1a1a" stroke-width="1"/>
  <!-- Bug icon: dots -->
  <circle cx="167" cy="66" r="1.3" fill="#1a1a1a"/>
  <circle cx="173" cy="66" r="1.3" fill="#1a1a1a"/>
  <circle cx="167" cy="70.5" r="1.3" fill="#1a1a1a"/>
  <circle cx="173" cy="70.5" r="1.3" fill="#1a1a1a"/>
</svg>
