<svg viewBox="0 0 200 120" fill="none" xmlns="http://www.w3.org/2000/svg">
  <!-- Background -->
  <rect width="200" height="120" rx="5" fill="#0d1117"/>

  <!-- Header -->
  <rect width="200" height="22" fill="#161b22"/>
  <rect x="8" y="7" width="8" height="8" rx="1.5" fill="#3d444d"/>
  <rect x="20" y="9" width="55" height="4" rx="2" fill="#3d444d"/>

  <!-- Code area — dimmed, no bug visible -->
  <rect x="8" y="31" width="88" height="3" rx="1.5" fill="#1c2128"/>
  <rect x="8" y="40" width="65" height="3" rx="1.5" fill="#1c2128"/>
  <rect x="8" y="49" width="98" height="3" rx="1.5" fill="#1c2128"/>
  <rect x="8" y="63" width="75" height="3" rx="1.5" fill="#1c2128"/>
  <rect x="8" y="79" width="78" height="3" rx="1.5" fill="#1c2128"/>
  <rect x="8" y="88" width="96" height="3" rx="1.5" fill="#1c2128"/>
  <rect x="8" y="97" width="58" height="3" rx="1.5" fill="#1c2128"/>
  <rect x="8" y="106" width="82" height="3" rx="1.5" fill="#1c2128"/>

  <!-- Dim overlay on code area -->
  <rect x="0" y="22" width="172" height="98" fill="rgba(13,17,23,0.55)"/>

  <!-- Minimap background -->
  <rect x="172" y="22" width="28" height="98" fill="#0d1117"/>
  <rect x="172" y="22" width="1" height="98" fill="#21262d"/>

  <!-- Minimap lines — dim -->
  <rect x="176" y="27" width="18" height="1.5" rx="0.75" fill="#3d444d"/>
  <rect x="176" y="32" width="14" height="1.5" rx="0.75" fill="#3d444d"/>
  <rect x="176" y="37" width="20" height="1.5" rx="0.75" fill="#3d444d"/>
  <rect x="176" y="50" width="16" height="1.5" rx="0.75" fill="#3d444d"/>
  <rect x="176" y="55" width="21" height="1.5" rx="0.75" fill="#3d444d"/>
  <rect x="176" y="60" width="12" height="1.5" rx="0.75" fill="#3d444d"/>
  <rect x="176" y="65" width="18" height="1.5" rx="0.75" fill="#3d444d"/>
  <rect x="176" y="70" width="14" height="1.5" rx="0.75" fill="#3d444d"/>
  <rect x="176" y="75" width="19" height="1.5" rx="0.75" fill="#3d444d"/>
  <rect x="176" y="80" width="16" height="1.5" rx="0.75" fill="#3d444d"/>
  <rect x="176" y="85" width="22" height="1.5" rx="0.75" fill="#3d444d"/>
  <rect x="176" y="90" width="13" height="1.5" rx="0.75" fill="#3d444d"/>
  <rect x="176" y="95" width="18" height="1.5" rx="0.75" fill="#3d444d"/>
  <rect x="176" y="100" width="20" height="1.5" rx="0.75" fill="#3d444d"/>
  <rect x="176" y="105" width="15" height="1.5" rx="0.75" fill="#3d444d"/>
  <rect x="176" y="110" width="17" height="1.5" rx="0.75" fill="#3d444d"/>

  <!-- Red line glow in minimap -->
  <rect x="173" y="41.5" width="26" height="5" rx="1.5" fill="rgba(248,81,73,0.35)"/>
  <!-- Red line in minimap — prominent -->
  <rect x="174" y="43" width="24" height="2" rx="1" fill="#f85149"/>

  <!-- Highlight border around minimap -->
  <rect x="170.5" y="21.5" width="29" height="99" rx="2" stroke="#f85149" stroke-width="1.5" fill="none" opacity="0.85"/>

  <!-- Arrow from code area pointing to minimap red line -->
  <path d="M130 65 L169 50" stroke="#f85149" stroke-width="1.3" stroke-linecap="round" fill="none" stroke-dasharray="3,2.5" opacity="0.8"/>
  <path d="M165.5 48.5 L169.5 50.5 L166.5 53.5" stroke="#f85149" stroke-width="1.3" stroke-linecap="round" stroke-linejoin="round" fill="none" opacity="0.8"/>

  <!-- "minimap" label below highlight box -->
  <text x="185" y="115" font-size="5.5" text-anchor="middle" dominant-baseline="middle" fill="#f85149" font-family="monospace" opacity="0.75">minimap</text>
</svg>
